<?xml version="1.0" encoding="UTF-8"?>
<svg version="1.1" xmlns="http://www.w3.org/2000/svg" width="72" height="72">
<path d="M0 0 C0.87269531 -0.02771484 1.74539062 -0.05542969 2.64453125 -0.08398438 C7.44765023 -0.06592754 10.36325202 0.4065894 14.0546875 3.59765625 C14.57530762 4.12367432 15.09592773 4.64969238 15.63232422 5.19165039 C17.28735452 6.95286636 17.28735452 6.95286636 20.375 8.8125 C25.1341171 12.05735257 26.54631257 15.18114392 27.78515625 20.6484375 C28.23540522 23.34993134 28.26152601 25.95697973 28.125 28.6875 C29.300625 29.120625 29.300625 29.120625 30.5 29.5625 C33.125 30.6875 33.125 30.6875 35.125 32.6875 C35.96175434 40.25636181 34.80240585 48.05694521 33.8125 55.5625 C33.69455078 56.56796875 33.57660156 57.5734375 33.45507812 58.609375 C32.26247131 67.83220107 32.26247131 67.83220107 29.125 71.6875 C26.59979512 72.95010244 24.83095307 72.8281621 22.00439453 72.84863281 C20.93633575 72.85824036 19.86827698 72.8678479 18.76785278 72.87774658 C17.60953949 72.88199646 16.4512262 72.88624634 15.2578125 72.890625 C14.07154266 72.89632507 12.88527283 72.90202515 11.66305542 72.90789795 C9.14956558 72.91735749 6.63606329 72.9238857 4.12255859 72.92773438 C0.27289247 72.93744227 -3.57624047 72.96845851 -7.42578125 73 C-9.86458015 73.00652958 -12.30338289 73.01178023 -14.7421875 73.015625 C-15.89645233 73.0279718 -17.05071716 73.0403186 -18.23995972 73.05303955 C-19.31432281 73.05003845 -20.38868591 73.04703735 -21.49560547 73.04394531 C-22.91218948 73.04941376 -22.91218948 73.04941376 -24.35739136 73.05499268 C-27.33447664 72.62043068 -28.6948528 71.72576713 -30.875 69.6875 C-31.6328125 67.734375 -31.6328125 67.734375 -32 65.4375 C-32.144375 64.55320313 -32.28875 63.66890625 -32.4375 62.7578125 C-32.581875 61.74460938 -32.72625 60.73140625 -32.875 59.6875 C-33.1534375 57.92019531 -33.1534375 57.92019531 -33.4375 56.1171875 C-35.93977204 39.19209748 -35.93977204 39.19209748 -34.875 32.6875 C-32.5 29.9375 -32.5 29.9375 -29.875 28.6875 C-29.215 28.6875 -28.555 28.6875 -27.875 28.6875 C-27.84921875 27.97464844 -27.8234375 27.26179688 -27.796875 26.52734375 C-27.4176244 20.12318016 -26.85962346 15.79599162 -22.875 10.6875 C-20.96787222 9.29904714 -19.05750275 8.1259607 -16.97265625 7.0234375 C-14.66414956 5.70631992 -14.66414956 5.70631992 -12.73828125 3.08203125 C-8.61682417 -0.36469889 -5.21586801 -0.08782208 0 0 Z M-18.875 14.625 C-21.64881221 18.87239995 -22.875 23.59262022 -22.875 28.6875 C-7.695 28.6875 7.485 28.6875 23.125 28.6875 C22.49036827 20.03549771 22.49036827 20.03549771 18.125 13.6875 C16.805 13.6875 15.485 13.6875 14.125 13.6875 C13.58746094 14.33589844 13.04992188 14.98429688 12.49609375 15.65234375 C8.76570733 18.85420755 4.94408998 18.30804884 0.1875 18.25 C-1.15344727 18.28577148 -1.15344727 18.28577148 -2.52148438 18.32226562 C-7.20779278 18.31182841 -9.18831388 18.26703094 -12.87890625 15.15234375 C-13.53761719 14.33894531 -14.19632813 13.52554687 -14.875 12.6875 C-17.09968387 12.45556826 -17.09968387 12.45556826 -18.875 14.625 Z " fill="#FFFFFF" transform="translate(35.875,-0.6875)"/>
<path d="M0 0 C0.99 0.33 1.98 0.66 3 1 C3 6.61 3 12.22 3 18 C1.68 17.67 0.36 17.34 -1 17 C-1.02684679 14.35409986 -1.04676357 11.70846904 -1.0625 9.0625 C-1.07087891 8.30775391 -1.07925781 7.55300781 -1.08789062 6.77539062 C-1.09652441 4.85005687 -1.05224333 2.92464419 -1 1 C-0.67 0.67 -0.34 0.34 0 0 Z " fill="#FFFFFF" transform="translate(22,41)"/>
<path d="M0 0 C1.32 0 2.64 0 4 0 C4 5.28 4 10.56 4 16 C2.68 16.33 1.36 16.66 0 17 C0 11.39 0 5.78 0 0 Z " fill="#FFFFFF" transform="translate(47,42)"/>
<path d="M0 0 C1.32 0 2.64 0 4 0 C4 5.28 4 10.56 4 16 C2.68 16 1.36 16 0 16 C0 10.72 0 5.44 0 0 Z " fill="#FFFFFF" transform="translate(34,42)"/>
</svg>

